<?xml version="1.0" encoding="utf-8"?>
<!-- Generator: Adobe Illustrator 24.0.1, SVG Export Plug-In . SVG Version: 6.00 Build 0)  -->
<svg version="1.1" id="Layer_3" xmlns="http://www.w3.org/2000/svg" xmlns:xlink="http://www.w3.org/1999/xlink" x="0px" y="0px"
	 viewBox="0 0 512 512" style="enable-background:new 0 0 512 512;" xml:space="preserve">
<style type="text/css">
	.st0{fill:#FFFFFF;}
</style>
<path class="st0" d="M184.1,200.3c0,0,37.2,67.1,37.2,160.6l41.2,12.5l39-12.5c0-32.2-2.6-58.9-5.9-79.8h66.8
	c-9.3,31.4-15.5,63.8-18.7,97.2L255.9,414l-87.8-35.6c-7.5-78-31.2-149.8-71.9-218L141.4,95h229l44,63.6H512L412.5,14.7H99.3
	l-99.6,144l15,22.6c46.4,70.3,71,144.5,75.2,226.8l1.3,25.5l164.7,66.8l164.7-66.8l1.3-25.5c3.8-75,24.6-143.2,63.3-207.9
	L184.1,200.3L184.1,200.3z"/>
</svg>
