<?xml version="1.0" encoding="utf-8"?>
<!-- Generator: Adobe Illustrator 24.0.1, SVG Export Plug-In . SVG Version: 6.00 Build 0)  -->
<svg version="1.1" id="Layer_2_1_" xmlns="http://www.w3.org/2000/svg" xmlns:xlink="http://www.w3.org/1999/xlink" x="0px" y="0px"
	 viewBox="0 0 1268.3 351" style="enable-background:new 0 0 1268.3 351;" xml:space="preserve">
<style type="text/css">
	.st0{fill:#001546;}
</style>
<g>
	<path class="st0" d="M61.5,0.9C70.1,0.9,77,1.6,82.1,3s8.7,3.9,11,7.5c2.2,3.6,3.3,8.6,3.3,15.2c0,6.8-1.3,12-3.9,15.5
		c-2.6,3.5-7,5.6-13,6.1v0.8c7.4,0.6,12.6,3.1,15.6,7.4c3,4.3,4.5,10.2,4.5,17.8c0,6.5-1.2,11.6-3.5,15.2s-6,6.1-10.9,7.5
		s-11.3,2.1-19.1,2.1c-6.5,0-12.2,0-17.1-0.1c-4.9,0-9.4-0.2-13.5-0.3c-4.1-0.2-8.4-0.4-12.7-0.7L25,79.6c2.3,0.1,6.7,0.2,13.4,0.3
		C45,80,52.7,80,61.4,80c3.3,0,5.9-0.3,7.6-0.9c1.8-0.6,3-1.8,3.7-3.5s1-4.2,1-7.4c0-3.4-0.4-6-1.1-7.9c-0.7-1.8-2-3.1-3.8-3.8
		s-4.4-1-7.8-1H24.8V39.9h36.1c2.8,0,4.9-0.3,6.5-0.8c1.6-0.6,2.7-1.6,3.3-3.2s1-3.8,1-6.7c0-2.8-0.3-5-1-6.5
		c-0.6-1.5-1.8-2.5-3.4-3c-1.7-0.6-4-0.8-7-0.8c-5.5,0-10.3,0-14.5-0.1c-4.1,0-7.9,0-11.2,0c-3.4,0-6.5,0.2-9.6,0.5L22.8,2
		c3.9-0.4,7.8-0.6,11.5-0.8C38,1.1,42.1,1,46.4,0.9C50.8,0.9,55.8,0.9,61.5,0.9z M48,2v95H22.8V2C22.8,2,48,2,48,2z"/>
	<path class="st0" d="M152.8,2v95h-25.9V2C126.9,2,152.8,2,152.8,2z M163.4,35.8c9.1,0,16.3,0.9,21.6,2.8s9.1,5.1,11.4,9.6
		c2.2,4.5,3.4,10.7,3.4,18.7c0,8.1-1.1,14.4-3.3,18.9s-5.6,7.7-10.3,9.5S175.5,98,168,98c-6.1,0-11.4,0-15.9-0.1
		c-4.5,0-8.7-0.2-12.6-0.3c-3.9-0.2-7.8-0.4-11.8-0.7l1.9-17.6c2.2,0.1,6.3,0.2,12.4,0.3c6.1,0.1,13.2,0.1,21.5,0.1
		c2.9,0,5.1-0.4,6.5-1.1c1.4-0.7,2.4-2.1,3-4.1s0.9-4.8,0.9-8.5s-0.3-6.5-0.8-8.5c-0.6-2-1.6-3.4-3-4.3c-1.5-0.8-3.7-1.2-6.6-1.2
		h-34V35.7h33.9V35.8z M237.5,2v95h-26V2C211.5,2,237.5,2,237.5,2z"/>
	<path class="st0" d="M307.5,0.9c8.6,0,15.5,0.7,20.6,2.1s8.7,3.9,11,7.5c2.2,3.6,3.3,8.6,3.3,15.2c0,6.8-1.3,12-3.9,15.5
		c-2.6,3.5-7,5.6-13,6.1v0.8c7.4,0.6,12.6,3.1,15.6,7.4c3,4.3,4.5,10.2,4.5,17.8c0,6.5-1.2,11.6-3.5,15.2s-6,6.1-10.9,7.5
		s-11.3,2.1-19.1,2.1c-6.5,0-12.2,0-17.1-0.1c-4.9,0-9.4-0.2-13.5-0.3c-4.1-0.2-8.4-0.4-12.7-0.7l2.2-17.4c2.3,0.1,6.7,0.2,13.4,0.3
		c6.6,0.1,14.3,0.1,23,0.1c3.3,0,5.9-0.3,7.6-0.9c1.8-0.6,3-1.8,3.7-3.5s1-4.2,1-7.4c0-3.4-0.4-6-1.1-7.9c-0.7-1.8-2-3.1-3.8-3.8
		s-4.4-1-7.8-1h-36.2V39.9h36.1c2.8,0,4.9-0.3,6.5-0.8c1.6-0.6,2.7-1.6,3.3-3.2s1-3.8,1-6.7c0-2.8-0.3-5-1-6.5
		c-0.6-1.5-1.8-2.5-3.4-3c-1.7-0.6-4-0.8-7-0.8c-5.5,0-10.3,0-14.5-0.1c-4.1,0-7.9,0-11.2,0c-3.4,0-6.5,0.2-9.6,0.5L268.8,2
		c3.9-0.4,7.8-0.6,11.5-0.8c3.7-0.1,7.8-0.2,12.1-0.3C296.8,0.9,301.8,0.9,307.5,0.9z M294,2v95h-25.2V2C268.8,2,294,2,294,2z"/>
	<path class="st0" d="M412.2,0c7.9,0,14.6,0.8,20,2.3c5.4,1.6,9.8,4.2,13.2,7.9c3.4,3.7,5.8,8.7,7.3,15.1c1.5,6.3,2.2,14.4,2.2,24.1
		c0,9.6-0.7,17.7-2.2,24c-1.5,6.4-3.9,11.4-7.3,15.2c-3.4,3.7-7.8,6.4-13.2,7.9c-5.4,1.6-12.1,2.3-20,2.3c-7.8,0-14.4-0.8-19.9-2.3
		c-5.5-1.6-9.9-4.2-13.3-7.9c-3.4-3.7-5.8-8.8-7.3-15.2s-2.2-14.4-2.2-24c0-9.7,0.7-17.8,2.2-24.1c1.5-6.3,3.9-11.4,7.3-15.1
		c3.4-3.7,7.8-6.4,13.3-7.9C397.7,0.8,404.4,0,412.2,0z M412.2,19.7c-4,0-7.2,0.8-9.4,2.5c-2.3,1.7-3.8,4.6-4.8,9
		c-0.9,4.3-1.4,10.4-1.4,18.3s0.5,14,1.4,18.3s2.5,7.3,4.8,9c2.2,1.7,5.4,2.5,9.4,2.5s7.2-0.8,9.4-2.5c2.2-1.7,3.8-4.6,4.7-9
		c0.9-4.3,1.3-10.4,1.3-18.3c0-7.9-0.4-14-1.3-18.3s-2.4-7.3-4.7-9C419.4,20.6,416.2,19.7,412.2,19.7z"/>
	<path class="st0" d="M510.8,0.9c8.4,0,15,0.7,19.9,2.1s8.5,3.9,10.7,7.5s3.3,8.6,3.3,15.2c0,6.8-1.3,12-3.8,15.5
		c-2.5,3.5-6.8,5.6-12.7,6.1v0.8c7.3,0.6,12.3,3.1,15.2,7.4c2.8,4.3,4.3,10.2,4.3,17.8c0,6.5-1.1,11.6-3.4,15.2
		c-2.3,3.6-5.8,6.1-10.5,7.5c-4.8,1.4-11,2.1-18.6,2.1c-5.5,0-10.5-0.1-14.9-0.4c-4.5-0.3-8.6-0.8-12.4-1.5s-7.6-1.7-11.4-2.8
		l1.9-17.1c6.2,0.9,11.8,1.6,17.1,2.1c5.2,0.5,10.1,0.8,14.7,0.8c2.8,0,5.1-0.3,6.7-1c1.6-0.6,2.7-1.7,3.4-3.3c0.6-1.6,1-3.8,1-6.7
		c0-3.2-0.3-5.6-1-7.3c-0.6-1.7-1.8-2.8-3.4-3.5c-1.7-0.7-3.9-1-6.9-1l-19.8-0.3V39.4l19.6-0.3c2.5-0.1,4.4-0.4,5.8-0.9
		s2.3-1.5,2.9-3s0.8-3.5,0.8-6.1s-0.3-4.5-0.8-5.9c-0.6-1.4-1.6-2.3-3-2.8c-1.5-0.5-3.5-0.8-6.2-0.8c-5.1,0-9.8,0.2-14.4,0.5
		c-4.5,0.3-9.4,0.8-14.7,1.4l-1.9-17.9c4.9-1,9.8-1.7,14.8-2.2C497.9,1.1,503.9,0.9,510.8,0.9z"/>
	<path class="st0" d="M719.1,2c5.9,0,8.9,3,9.1,9.1l3.6,85.9h-23.6l-3-75.5H703l-12.1,53.3c-0.8,5.3-4.1,8-9.9,8h-14.3
		c-5.7,0-9.1-2.7-10.2-8l-12.1-53.3h-2.2L639.6,97h-23.4l3.3-85.9c0.3-6.1,3.4-9.1,9.2-9.1h23.1c5.5,0,8.8,2.7,9.9,8.1l9.2,42.3
		c0.5,2.2,0.8,4.5,1.2,6.8c0.3,2.3,0.6,4.7,0.9,7.1h1.5c0.4-2.4,0.7-4.8,1-7.1s0.6-4.7,1.1-7l9.1-42.1c1-5.4,4.3-8.1,9.9-8.1
		C695.6,2,719.1,2,719.1,2z"/>
	<path class="st0" d="M778.5,2L791,50.1c0.3,1.2,1.1,1.8,2.5,1.8h5.2l7,18.5h-21.9c-4,0-7.1-1-9.1-3.1s-3.6-4.8-4.7-8.3L751.8,2.1
		L778.5,2L778.5,2z M836.4,2l-21.8,69.8c-1.7,5.6-3.6,10.3-5.6,14.2s-4.5,6.8-7.6,8.9c-3,2.1-7,3.3-11.8,3.8
		c-2.5,0.3-5.4,0.3-8.7,0.1c-3.3-0.2-6.6-0.5-9.8-0.9c-3.2-0.4-5.9-0.8-8.1-1.2l2.8-17.8c3.9,0.2,7.1,0.3,9.8,0.3
		c2.7,0,4.8-0.1,6.5-0.5s3.1-1,4.1-1.9s1.8-2.2,2.5-4l3-11.2l4-9.4L810,1.8h26.4V2z"/>
	<path class="st0" d="M895.2,0.3c4.8,0,8.8,0.1,12.2,0.4c3.4,0.3,6.4,0.6,9.2,1.1c2.8,0.5,5.7,1.1,8.6,1.9l-1.9,19
		c-3.1-0.2-6-0.3-8.7-0.3s-5.5-0.1-8.5-0.1s-6.7-0.1-10.9-0.1c-3.8,0-6.7,0.8-8.9,2.3c-2.2,1.6-3.7,4.3-4.5,8.3
		c-0.8,3.9-1.2,9.5-1.2,16.7s0.4,12.7,1.2,16.7c0.8,3.9,2.3,6.7,4.5,8.3s5.1,2.3,8.9,2.3c6.7,0,12.3-0.1,16.7-0.3
		c4.5-0.2,8.9-0.5,13.4-1l1.9,18.9c-4.6,1.6-9.3,2.7-14.1,3.3c-4.8,0.6-10.8,1-18,1c-10.2,0-18.3-1.6-24.4-4.8s-10.5-8.3-13.2-15.5
		s-4.1-16.8-4.1-28.9s1.4-21.8,4.1-28.9c2.7-7.2,7.1-12.3,13.2-15.5C876.9,1.9,885,0.3,895.2,0.3z"/>
	<path class="st0" d="M991.2,0c7.9,0,14.6,0.8,20,2.3c5.4,1.6,9.8,4.2,13.2,7.9c3.4,3.7,5.8,8.7,7.3,15.1c1.5,6.3,2.2,14.4,2.2,24.1
		c0,9.6-0.7,17.7-2.2,24c-1.5,6.4-3.9,11.4-7.3,15.2c-3.4,3.7-7.8,6.4-13.2,7.9c-5.4,1.6-12.1,2.3-20,2.3c-7.8,0-14.4-0.8-19.9-2.3
		c-5.5-1.6-9.9-4.2-13.3-7.9s-5.8-8.8-7.3-15.2s-2.2-14.4-2.2-24c0-9.7,0.7-17.8,2.2-24.1c1.5-6.3,3.9-11.4,7.3-15.1
		s7.8-6.4,13.3-7.9C976.7,0.8,983.4,0,991.2,0z M991.2,19.7c-4,0-7.2,0.8-9.4,2.5c-2.3,1.7-3.8,4.6-4.8,9
		c-0.9,4.3-1.4,10.4-1.4,18.3s0.5,14,1.4,18.3s2.5,7.3,4.8,9c2.2,1.7,5.4,2.5,9.4,2.5s7.2-0.8,9.4-2.5c2.2-1.7,3.8-4.6,4.7-9
		c0.9-4.3,1.3-10.4,1.3-18.3c0-7.9-0.4-14-1.3-18.3s-2.4-7.3-4.7-9C998.4,20.6,995.2,19.7,991.2,19.7z"/>
	<path class="st0" d="M1100.3,0.6c9.5,0,17,0.9,22.4,2.8s9.2,5.1,11.5,9.7s3.4,11,3.4,19.3s-1.1,14.7-3.2,19.2
		c-2.2,4.5-5.7,7.7-10.7,9.6c-5,1.8-11.6,2.8-20,2.8c-4.4,0-8.8-0.2-13.2-0.6c-4.4-0.4-8.4-1-12.2-1.7c-3.8-0.7-7-1.4-9.6-2.2
		c-2.7-0.8-4.5-1.4-5.5-2l0.4-12.1c5.7,0,11.6,0,17.8,0c6.2,0,12.2,0,18.2,0c3.2-0.1,5.7-0.5,7.4-1.2c1.7-0.7,3-2,3.7-3.9
		s1-4.5,1-7.9c0-3.5-0.3-6.2-1-8.1s-1.9-3.2-3.7-3.9c-1.7-0.7-4.2-1-7.4-1c-8.9,0-16.5,0-22.9,0.1c-6.3,0.1-10.7,0.3-12.9,0.6
		l-2.1-18c4-0.5,7.9-0.8,11.4-1c3.6-0.2,7.5-0.3,11.7-0.3C1089.1,0.6,1094.3,0.6,1100.3,0.6z M1087.7,2v95h-25.9V2
		C1061.8,2,1087.7,2,1087.7,2z"/>
	<path class="st0" d="M1212.1,2c2.1,0,4,0.6,5.6,1.8c1.6,1.2,2.7,2.8,3.2,5l26,88.3h-26.4l-16.7-65.6c-0.4-1.6-0.7-3.2-1-5
		s-0.6-3.5-0.8-5h-3.7c-0.2,1.6-0.4,3.2-0.8,5c-0.3,1.8-0.7,3.5-1,5l-16.7,65.6h-26.4l26-88.3c0.6-2.1,1.6-3.8,3.2-5
		s3.5-1.8,5.6-1.8C1188.2,2,1212.1,2,1212.1,2z M1225.2,55.8v18.6h-50V55.8H1225.2z"/>
</g>
<g id="Газелью_2_">
	<g>
		<path class="st0" d="M153.3,162.2c-7.9-1.1-16.8-1.9-26.7-2.5c-10-0.5-20.2-0.9-30.8-1s-21-0.1-31.2-0.1
			c-11.1,0-20.8,3.6-28.9,10.7c-8.1,7.1-13.1,17-14.9,29.6L0,348.5h51.5l19.2-137c0.7-5.1,2.3-8.6,4.7-10.4s6.1-2.7,11.2-2.7h61.1
			L153.3,162.2z M441,161.8c-9.9-3-23-4.5-39.4-4.5c-13.1,0-24.7,0.5-34.6,1.4c-10,0.9-19.9,2.4-29.7,4.4l1.9,35.6
			c0,0,28-3.8,55.3-3.8c10.2,0,15.9,1.2,17.9,6.2c1,2.5,1.1,6.1,0.4,10.8c-0.7,5.7-1.9,10.1-3.4,13.3c-3.1,6.4-9,8.9-20.7,8.9H352
			l-4.1,33.1h39.2c11,0,16.8,2,18.5,8.2c2.7,10-0.9,25.8-4.2,31.7c-4.2,7.2-11.1,9.4-23.3,9.4c-5.8,0-53.7,0-81,0l-21.7-142.7
			c-0.5-4-2.4-7.4-5.6-10.1c-3.2-2.7-6.8-4.1-10.8-4.1h-47.4c-4.2,0-7.9,1.1-11.1,3.1c-3.2,2.1-5.5,5.2-7,9.2l-76.1,176.7h53.4
			l17.5-44.4h57.5l4.8,46.7h41.3h10.3c34.5,0,84.4,0,86.1,0c14.6,0,27-1.5,36.4-4.1c9.4-2.6,16.7-7.4,21.8-14.2
			c5.1-6.8,8.5-16.6,10.1-29.2c2.2-15.5,0.9-27.8-4-36.7c-4.8-8.9-13.9-14.1-27.3-15.3l0.5-1.6c12.4-1.1,21.4-5,27-11.6
			c5.6-6.7,9.3-16.5,11.1-29.4c2-13.3,1.1-23.7-2.6-31.1C457.7,170,450.9,164.8,441,161.8z M203.1,266l19.3-49
			c1.5-3.3,2.6-6.7,3.6-10.1c0.9-3.5,1.7-6.6,2.5-9.3h7.7c0,3.3,0,6.6,0.1,9.9s0.3,6.7,0.7,10.1l5,48.5h-38.9V266z M770.9,159.4
			h-38.1c-13.9,0-24.8,3.2-32.7,9.6c-7.9,6.4-13.4,16-16.3,28.8c-1.8,9.1-3.7,17.7-5.6,25.6s-3.7,15.2-5.5,21.8
			c-1.7,6.6-3.4,12.6-5.1,18.1c-1.6,5.5-3.3,10.5-5.1,14.9c-1.7,4.5-3.5,8.4-5.3,11.6c-3.5,7-5.5,23.1-48.5,23.1l-60.6,0.1
			c-4.6,0-7.8-1-9.6-3.1c-1.8-2.1-2.4-5.2-1.6-9.2l3.9-32.2h71.7l4.4-34.8h-71.3l3.1-22.7c0.7-4.7,2.2-8,4.5-9.9
			c2.3-1.8,5.9-2.7,10.8-2.7h67.9l5.8-36.4c-8.4-1.1-17.7-1.9-27.9-2.3c-10.2-0.5-20.8-0.7-31.8-0.8s-21.8-0.1-32.6-0.1
			c-13.3,0-24,3.6-31.9,10.7s-12.7,16.8-14.4,29l-14.5,102.7c-1.8,14.2,0.8,25.8,7.8,34.8c7,8.9,22,15,37.1,15c-0.5,0,75.8,0,75.8,0
			l0,0c72.2,0,80-1.2,98.2-43.2c2.1-4.9,4.6-9.9,6.7-15.5s4.1-11.5,6-17.9s3.7-13.1,5.5-20c1.7-6.9,3.5-14.1,5.2-21.5
			s3.4-14.9,5.1-22.6c1.5-6.2,3.6-10.5,6.3-12.7c2.7-2.3,7.1-3.4,13.1-3.4H766l-21.7,154.5h51.2l26.6-189h-3.8h-47.4V159.4z
			 M967.5,232.7c-10.2-3.9-24.4-5.9-42.5-5.9h-20.2l9.5-67.4h-51.2l-26.8,189c8.2,0.5,16.3,1,24.1,1.4c7.8,0.4,16.6,0.6,26.2,0.7
			s21,0.1,34.4,0.1c15.7,0,28.2-1.7,37.5-5.1s16.4-9.4,21.2-18.2c4.8-8.8,8.4-21,10.5-36.7c2.4-16.1,1.7-28.8-1.9-38.1
			C984.6,243.3,977.7,236.6,967.5,232.7z M939.3,287.1c-1.1,8.6-2.6,14.8-4.7,18.6c-2,3.8-4.8,6.2-8.5,7.1s-8.7,1.4-15.1,1.4
			c-6.5,0-12.6,0-18.5,0l7.7-55h20.9c6.8,0,11.5,0.8,14.4,2.5c2.8,1.6,4.4,4.5,4.7,8.5C940.5,274.1,940.2,279.8,939.3,287.1z
			 M1264.6,197c-4.5-14.6-12.6-25.2-24.5-31.6c-11.9-6.5-27.4-9.7-46.6-9.7c-14.1,0-26.2,1.5-36.3,4.5c-10.1,3-18.7,8.1-25.7,15.2
			s-12.7,16.9-17.1,29.4c-2.9,8.2-5.3,17.7-7.4,28.6h-30.9l10.4-74H1035l-26.6,189h51.5l11.3-80.5h30.9c-1.1,12.5-1.2,23.3-0.3,32.5
			c1.3,12.9,4.7,23.1,10.1,30.8c5.5,7.7,13.1,13.1,23,16.3c9.9,3.2,22.1,4.8,36.7,4.8c15,0,27.9-1.5,38.8-4.5s19.9-8.1,27.1-15.2
			s13.1-16.9,17.8-29.4c4.7-12.5,8.3-28.3,10.8-47.2C1269.5,231.2,1269,211.6,1264.6,197z M1212.4,252c-2.2,16.4-4.8,29.1-7.7,37.9
			c-2.9,8.9-6.8,14.9-11.5,18.2c-4.8,3.3-11.2,4.9-19.4,4.9c-7.3,0-12.8-1.5-16.4-4.7c-3.7-3.1-5.7-8.8-6.2-17.1
			c-0.5-8.3,0.4-20.1,2.6-35.5c2.2-16.6,4.7-29.3,7.4-38.1c2.7-8.8,6.5-14.8,11.2-18.1c4.7-3.3,11.2-4.9,19.4-4.9
			c7.8,0,13.6,1.6,17.1,4.7c3.6,3.1,5.6,8.8,6,17C1215.4,224.6,1214.6,236.5,1212.4,252z"/>
	</g>
</g>
</svg>
