<?xml version="1.0" encoding="utf-8"?>
<!-- Generator: Adobe Illustrator 24.0.1, SVG Export Plug-In . SVG Version: 6.00 Build 0)  -->
<svg version="1.1" id="Layer_2" xmlns="http://www.w3.org/2000/svg" xmlns:xlink="http://www.w3.org/1999/xlink" x="0px" y="0px"
	 viewBox="0 0 1870.4 512" style="enable-background:new 0 0 1870.4 512;" xml:space="preserve">
<style type="text/css">
	.st0{fill:#001546;}
</style>
<g>
	<path class="st0" d="M667.7,88.3c8.6,0,15.5,0.7,20.6,2.1c5.1,1.4,8.7,3.9,11,7.5c2.2,3.6,3.3,8.6,3.3,15.2c0,6.8-1.3,12-3.9,15.5
		c-2.6,3.5-7,5.6-13,6.1v0.8c7.4,0.6,12.6,3.1,15.6,7.4c3,4.3,4.5,10.2,4.5,17.8c0,6.5-1.2,11.6-3.5,15.2s-6,6.1-10.9,7.5
		c-4.9,1.4-11.3,2.1-19.1,2.1c-6.5,0-12.2,0-17.1-0.1c-4.9,0-9.4-0.2-13.5-0.3c-4.1-0.2-8.4-0.4-12.7-0.7l2.2-17.4
		c2.3,0.1,6.7,0.2,13.4,0.3c6.6,0.1,14.3,0.1,23,0.1c3.3,0,5.9-0.3,7.6-0.9c1.8-0.6,3-1.8,3.7-3.5c0.7-1.7,1-4.2,1-7.4
		c0-3.4-0.4-6-1.1-7.9c-0.7-1.8-2-3.1-3.8-3.8c-1.8-0.7-4.4-1-7.8-1H631v-15.6h36.1c2.8,0,4.9-0.3,6.5-0.8c1.6-0.6,2.7-1.6,3.3-3.2
		c0.6-1.6,1-3.8,1-6.7c0-2.8-0.3-5-1-6.5c-0.6-1.5-1.8-2.5-3.4-3c-1.7-0.6-4-0.8-7-0.8c-5.5,0-10.3,0-14.5-0.1c-4.1,0-7.9,0-11.2,0
		c-3.4,0-6.5,0.2-9.6,0.5L629,89.4c3.9-0.4,7.8-0.6,11.5-0.8c3.7-0.1,7.8-0.2,12.1-0.3C657,88.3,662,88.3,667.7,88.3z M654.2,89.4
		v95H629v-95H654.2z"/>
	<path class="st0" d="M759,89.4v95h-25.9v-95H759z M769.6,123.2c9.1,0,16.3,0.9,21.6,2.8c5.3,1.9,9.1,5.1,11.4,9.6
		c2.2,4.5,3.4,10.7,3.4,18.7c0,8.1-1.1,14.4-3.3,18.9c-2.2,4.5-5.6,7.7-10.3,9.5c-4.7,1.8-10.7,2.7-18.2,2.7c-6.1,0-11.4,0-15.9-0.1
		c-4.5,0-8.7-0.2-12.6-0.3c-3.9-0.2-7.8-0.4-11.8-0.7l1.9-17.6c2.2,0.1,6.3,0.2,12.4,0.3c6.1,0.1,13.2,0.1,21.5,0.1
		c2.9,0,5.1-0.4,6.5-1.1c1.4-0.7,2.4-2.1,3-4.1c0.6-2,0.9-4.8,0.9-8.5c0-3.7-0.3-6.5-0.8-8.5c-0.6-2-1.6-3.4-3-4.3
		c-1.5-0.8-3.7-1.2-6.6-1.2h-34v-16.3H769.6z M843.7,89.4v95h-26v-95H843.7z"/>
	<path class="st0" d="M913.7,88.3c8.6,0,15.5,0.7,20.6,2.1c5.1,1.4,8.7,3.9,11,7.5c2.2,3.6,3.3,8.6,3.3,15.2c0,6.8-1.3,12-3.9,15.5
		c-2.6,3.5-7,5.6-13,6.1v0.8c7.4,0.6,12.6,3.1,15.6,7.4c3,4.3,4.5,10.2,4.5,17.8c0,6.5-1.2,11.6-3.5,15.2s-6,6.1-10.9,7.5
		c-4.9,1.4-11.3,2.1-19.1,2.1c-6.5,0-12.2,0-17.1-0.1c-4.9,0-9.4-0.2-13.5-0.3c-4.1-0.2-8.4-0.4-12.7-0.7l2.2-17.4
		c2.3,0.1,6.7,0.2,13.4,0.3c6.6,0.1,14.3,0.1,23,0.1c3.3,0,5.9-0.3,7.6-0.9c1.8-0.6,3-1.8,3.7-3.5c0.7-1.7,1-4.2,1-7.4
		c0-3.4-0.4-6-1.1-7.9c-0.7-1.8-2-3.1-3.8-3.8c-1.8-0.7-4.4-1-7.8-1H877v-15.6h36.1c2.8,0,4.9-0.3,6.5-0.8c1.6-0.6,2.7-1.6,3.3-3.2
		c0.6-1.6,1-3.8,1-6.7c0-2.8-0.3-5-1-6.5c-0.6-1.5-1.8-2.5-3.4-3c-1.7-0.6-4-0.8-7-0.8c-5.5,0-10.3,0-14.5-0.1c-4.1,0-7.9,0-11.2,0
		c-3.4,0-6.5,0.2-9.6,0.5L875,89.4c3.9-0.4,7.8-0.6,11.5-0.8c3.7-0.1,7.8-0.2,12.1-0.3C903,88.3,908,88.3,913.7,88.3z M900.2,89.4
		v95H875v-95H900.2z"/>
	<path class="st0" d="M1018.4,87.4c7.9,0,14.6,0.8,20,2.3c5.4,1.6,9.8,4.2,13.2,7.9c3.4,3.7,5.8,8.7,7.3,15.1
		c1.5,6.3,2.2,14.4,2.2,24.1c0,9.6-0.7,17.7-2.2,24c-1.5,6.4-3.9,11.4-7.3,15.2c-3.4,3.7-7.8,6.4-13.2,7.9c-5.4,1.6-12.1,2.3-20,2.3
		c-7.8,0-14.4-0.8-19.9-2.3c-5.5-1.6-9.9-4.2-13.3-7.9c-3.4-3.7-5.8-8.8-7.3-15.2c-1.5-6.4-2.2-14.4-2.2-24c0-9.7,0.7-17.8,2.2-24.1
		c1.5-6.3,3.9-11.4,7.3-15.1c3.4-3.7,7.8-6.4,13.3-7.9C1003.9,88.2,1010.6,87.4,1018.4,87.4z M1018.4,107.1c-4,0-7.2,0.8-9.4,2.5
		c-2.3,1.7-3.8,4.6-4.8,9c-0.9,4.3-1.4,10.4-1.4,18.3c0,7.9,0.5,14,1.4,18.3c0.9,4.3,2.5,7.3,4.8,9c2.2,1.7,5.4,2.5,9.4,2.5
		c4,0,7.2-0.8,9.4-2.5c2.2-1.7,3.8-4.6,4.7-9c0.9-4.3,1.3-10.4,1.3-18.3c0-7.9-0.4-14-1.3-18.3c-0.9-4.3-2.4-7.3-4.7-9
		C1025.6,108,1022.4,107.1,1018.4,107.1z"/>
	<path class="st0" d="M1117,88.3c8.4,0,15,0.7,19.9,2.1c4.9,1.4,8.5,3.9,10.7,7.5c2.2,3.6,3.3,8.6,3.3,15.2c0,6.8-1.3,12-3.8,15.5
		c-2.5,3.5-6.8,5.6-12.7,6.1v0.8c7.3,0.6,12.3,3.1,15.2,7.4c2.8,4.3,4.3,10.2,4.3,17.8c0,6.5-1.1,11.6-3.4,15.2
		c-2.3,3.6-5.8,6.1-10.5,7.5c-4.8,1.4-11,2.1-18.6,2.1c-5.5,0-10.5-0.1-14.9-0.4c-4.5-0.3-8.6-0.8-12.4-1.5
		c-3.8-0.7-7.6-1.7-11.4-2.8l1.9-17.1c6.2,0.9,11.8,1.6,17.1,2.1c5.2,0.5,10.1,0.8,14.7,0.8c2.8,0,5.1-0.3,6.7-1
		c1.6-0.6,2.7-1.7,3.4-3.3c0.6-1.6,1-3.8,1-6.7c0-3.2-0.3-5.6-1-7.3c-0.6-1.7-1.8-2.8-3.4-3.5c-1.7-0.7-3.9-1-6.9-1l-19.8-0.3v-16.7
		l19.6-0.3c2.5-0.1,4.4-0.4,5.8-0.9c1.4-0.5,2.3-1.5,2.9-3c0.6-1.5,0.8-3.5,0.8-6.1c0-2.6-0.3-4.5-0.8-5.9c-0.6-1.4-1.6-2.3-3-2.8
		c-1.5-0.5-3.5-0.8-6.2-0.8c-5.1,0-9.8,0.2-14.4,0.5c-4.5,0.3-9.4,0.8-14.7,1.4l-1.9-17.9c4.9-1,9.8-1.7,14.8-2.2
		C1104.1,88.5,1110.1,88.3,1117,88.3z"/>
	<path class="st0" d="M1325.3,89.4c5.9,0,8.9,3,9.1,9.1l3.6,85.9h-23.6l-3-75.5h-2.2l-12.1,53.3c-0.8,5.3-4.1,8-9.9,8h-14.3
		c-5.7,0-9.1-2.7-10.2-8l-12.1-53.3h-2.2l-2.6,75.5h-23.4l3.3-85.9c0.3-6.1,3.4-9.1,9.2-9.1h23.1c5.5,0,8.8,2.7,9.9,8.1l9.2,42.3
		c0.5,2.2,0.8,4.5,1.2,6.8c0.3,2.3,0.6,4.7,0.9,7.1h1.5c0.4-2.4,0.7-4.8,1-7.1c0.3-2.3,0.6-4.7,1.1-7l9.1-42.1
		c1-5.4,4.3-8.1,9.9-8.1H1325.3z"/>
	<path class="st0" d="M1384.7,89.4l12.5,48.1c0.3,1.2,1.1,1.8,2.5,1.8h5.2l7,18.5h-21.9c-4,0-7.1-1-9.1-3.1c-2-2.1-3.6-4.8-4.7-8.3
		l-18.2-56.9H1384.7z M1442.6,89.4l-21.8,69.8c-1.7,5.6-3.6,10.3-5.6,14.2c-2,3.9-4.5,6.8-7.6,8.9c-3,2.1-7,3.3-11.8,3.8
		c-2.5,0.3-5.4,0.3-8.7,0.1c-3.3-0.2-6.6-0.5-9.8-0.9c-3.2-0.4-5.9-0.8-8.1-1.2l2.8-17.8c3.9,0.2,7.1,0.3,9.8,0.3
		c2.7,0,4.8-0.1,6.5-0.5c1.7-0.4,3.1-1,4.1-1.9c1-0.9,1.8-2.2,2.5-4l3-11.2l4-9.4l14.3-50.4H1442.6z"/>
	<path class="st0" d="M1501.4,87.7c4.8,0,8.8,0.1,12.2,0.4c3.4,0.3,6.4,0.6,9.2,1.1c2.8,0.5,5.7,1.1,8.6,1.9l-1.9,19
		c-3.1-0.2-6-0.3-8.7-0.3c-2.7,0-5.5-0.1-8.5-0.1c-3,0-6.7-0.1-10.9-0.1c-3.8,0-6.7,0.8-8.9,2.3c-2.2,1.6-3.7,4.3-4.5,8.3
		c-0.8,3.9-1.2,9.5-1.2,16.7c0,7.2,0.4,12.7,1.2,16.7c0.8,3.9,2.3,6.7,4.5,8.3c2.2,1.6,5.1,2.3,8.9,2.3c6.7,0,12.3-0.1,16.7-0.3
		c4.5-0.2,8.9-0.5,13.4-1l1.9,18.9c-4.6,1.6-9.3,2.7-14.1,3.3c-4.8,0.6-10.8,1-18,1c-10.2,0-18.3-1.6-24.4-4.8
		c-6.1-3.2-10.5-8.3-13.2-15.5c-2.7-7.2-4.1-16.8-4.1-28.9c0-12.1,1.4-21.8,4.1-28.9c2.7-7.2,7.1-12.3,13.2-15.5
		C1483.1,89.3,1491.2,87.7,1501.4,87.7z"/>
	<path class="st0" d="M1597.4,87.4c7.9,0,14.6,0.8,20,2.3c5.4,1.6,9.8,4.2,13.2,7.9c3.4,3.7,5.8,8.7,7.3,15.1
		c1.5,6.3,2.2,14.4,2.2,24.1c0,9.6-0.7,17.7-2.2,24c-1.5,6.4-3.9,11.4-7.3,15.2c-3.4,3.7-7.8,6.4-13.2,7.9c-5.4,1.6-12.1,2.3-20,2.3
		c-7.8,0-14.4-0.8-19.9-2.3c-5.5-1.6-9.9-4.2-13.3-7.9c-3.4-3.7-5.8-8.8-7.3-15.2c-1.5-6.4-2.2-14.4-2.2-24c0-9.7,0.7-17.8,2.2-24.1
		c1.5-6.3,3.9-11.4,7.3-15.1c3.4-3.7,7.8-6.4,13.3-7.9C1582.9,88.2,1589.6,87.4,1597.4,87.4z M1597.4,107.1c-4,0-7.2,0.8-9.4,2.5
		c-2.3,1.7-3.8,4.6-4.8,9c-0.9,4.3-1.4,10.4-1.4,18.3c0,7.9,0.5,14,1.4,18.3c0.9,4.3,2.5,7.3,4.8,9c2.2,1.7,5.4,2.5,9.4,2.5
		c4,0,7.2-0.8,9.4-2.5c2.2-1.7,3.8-4.6,4.7-9c0.9-4.3,1.3-10.4,1.3-18.3c0-7.9-0.4-14-1.3-18.3c-0.9-4.3-2.4-7.3-4.7-9
		C1604.6,108,1601.4,107.1,1597.4,107.1z"/>
	<path class="st0" d="M1706.5,88c9.5,0,17,0.9,22.4,2.8c5.4,1.9,9.2,5.1,11.5,9.7c2.3,4.6,3.4,11,3.4,19.3s-1.1,14.7-3.2,19.2
		c-2.2,4.5-5.7,7.7-10.7,9.6c-5,1.8-11.6,2.8-20,2.8c-4.4,0-8.8-0.2-13.2-0.6c-4.4-0.4-8.4-1-12.2-1.7c-3.8-0.7-7-1.4-9.6-2.2
		c-2.7-0.8-4.5-1.4-5.5-2l0.4-12.1c5.7,0,11.6,0,17.8,0c6.2,0,12.2,0,18.2,0c3.2-0.1,5.7-0.5,7.4-1.2c1.7-0.7,3-2,3.7-3.9
		c0.7-1.9,1-4.5,1-7.9c0-3.5-0.3-6.2-1-8.1s-1.9-3.2-3.7-3.9c-1.7-0.7-4.2-1-7.4-1c-8.9,0-16.5,0-22.9,0.1
		c-6.3,0.1-10.7,0.3-12.9,0.6l-2.1-18c4-0.5,7.9-0.8,11.4-1c3.6-0.2,7.5-0.3,11.7-0.3C1695.3,88,1700.5,88,1706.5,88z M1693.9,89.4
		v95H1668v-95H1693.9z"/>
	<path class="st0" d="M1818.3,89.4c2.1,0,4,0.6,5.6,1.8c1.6,1.2,2.7,2.8,3.2,5l26,88.3h-26.4l-16.7-65.6c-0.4-1.6-0.7-3.2-1-5
		s-0.6-3.5-0.8-5h-3.7c-0.2,1.6-0.4,3.2-0.8,5c-0.3,1.8-0.7,3.5-1,5l-16.7,65.6h-26.4l26-88.3c0.6-2.1,1.6-3.8,3.2-5
		c1.6-1.2,3.5-1.8,5.6-1.8H1818.3z M1831.4,143.2v18.6h-50v-18.6H1831.4z"/>
</g>
<g id="Газелью_2_">
	<g>
		<path class="st0" d="M759.5,249.6c-7.9-1.1-16.8-1.9-26.7-2.5c-10-0.5-20.2-0.9-30.8-1c-10.6-0.1-21-0.1-31.2-0.1
			c-11.1,0-20.8,3.6-28.9,10.7c-8.1,7.1-13.1,17-14.9,29.6l-20.8,149.6h51.5l19.2-137c0.7-5.1,2.3-8.6,4.7-10.4
			c2.4-1.8,6.1-2.7,11.2-2.7h61.1L759.5,249.6z M1047.2,249.2c-9.9-3-23-4.5-39.4-4.5c-13.1,0-24.7,0.5-34.6,1.4
			c-10,0.9-19.9,2.4-29.7,4.4l1.9,35.6c0,0,28-3.8,55.3-3.8c10.2,0,15.9,1.2,17.9,6.2c1,2.5,1.1,6.1,0.4,10.8
			c-0.7,5.7-1.9,10.1-3.4,13.3c-3.1,6.4-9,8.9-20.7,8.9h-36.7l-4.1,33.1h39.2c11,0,16.8,2,18.5,8.2c2.7,10-0.9,25.8-4.2,31.7
			c-4.2,7.2-11.1,9.4-23.3,9.4c-5.8,0-53.7,0-81,0l-21.7-142.7c-0.5-4-2.4-7.4-5.6-10.1c-3.2-2.7-6.8-4.1-10.8-4.1h-47.4
			c-4.2,0-7.9,1.1-11.1,3.1c-3.2,2.1-5.5,5.2-7,9.2l-76.1,176.7h53.4l17.5-44.4H852l4.8,46.7h41.3h10.3c34.5,0,84.4,0,86.1,0
			c14.6,0,27-1.5,36.4-4.1c9.4-2.6,16.7-7.4,21.8-14.2c5.1-6.8,8.5-16.6,10.1-29.2c2.2-15.5,0.9-27.8-4-36.7
			c-4.8-8.9-13.9-14.1-27.3-15.3l0.5-1.6c12.4-1.1,21.4-5,27-11.6c5.6-6.7,9.3-16.5,11.1-29.4c2-13.3,1.1-23.7-2.6-31.1
			C1063.9,257.4,1057.1,252.2,1047.2,249.2z M809.3,353.4l19.3-49c1.5-3.3,2.6-6.7,3.6-10.1c0.9-3.5,1.7-6.6,2.5-9.3h7.7
			c0,3.3,0,6.6,0.1,9.9c0.1,3.3,0.3,6.7,0.7,10.1l5,48.5H809.3z M1377.1,246.8H1339c-13.9,0-24.8,3.2-32.7,9.6
			c-7.9,6.4-13.4,16-16.3,28.8c-1.8,9.1-3.7,17.7-5.6,25.6c-1.9,7.9-3.7,15.2-5.5,21.8c-1.7,6.6-3.4,12.6-5.1,18.1
			c-1.6,5.5-3.3,10.5-5.1,14.9c-1.7,4.5-3.5,8.4-5.3,11.6c-3.5,7-5.5,23.1-48.5,23.1l-60.6,0.1c-4.6,0-7.8-1-9.6-3.1
			c-1.8-2.1-2.4-5.2-1.6-9.2l3.9-32.2h71.7l4.4-34.8h-71.3l3.1-22.7c0.7-4.7,2.2-8,4.5-9.9c2.3-1.8,5.9-2.7,10.8-2.7h67.9l5.8-36.4
			c-8.4-1.1-17.7-1.9-27.9-2.3c-10.2-0.5-20.8-0.7-31.8-0.8c-11-0.1-21.8-0.1-32.6-0.1c-13.3,0-24,3.6-31.9,10.7s-12.7,16.8-14.4,29
			l-14.5,102.7c-1.8,14.2,0.8,25.8,7.8,34.8c7,8.9,22,15,37.1,15c-0.5,0,75.8,0,75.8,0l0,0c72.2,0,80-1.2,98.2-43.2
			c2.1-4.9,4.6-9.9,6.7-15.5c2.1-5.6,4.1-11.5,6-17.9c1.9-6.4,3.7-13.1,5.5-20c1.7-6.9,3.5-14.1,5.2-21.5c1.7-7.4,3.4-14.9,5.1-22.6
			c1.5-6.2,3.6-10.5,6.3-12.7c2.7-2.3,7.1-3.4,13.1-3.4h14.6l-21.7,154.5h51.2l26.6-189h-3.8H1377.1z M1573.7,320.1
			c-10.2-3.9-24.4-5.9-42.5-5.9h-20.2l9.5-67.4h-51.2l-26.8,189c8.2,0.5,16.3,1,24.1,1.4c7.8,0.4,16.6,0.6,26.2,0.7
			c9.6,0.1,21,0.1,34.4,0.1c15.7,0,28.2-1.7,37.5-5.1s16.4-9.4,21.2-18.2c4.8-8.8,8.4-21,10.5-36.7c2.4-16.1,1.7-28.8-1.9-38.1
			C1590.8,330.7,1583.9,324,1573.7,320.1z M1545.5,374.5c-1.1,8.6-2.6,14.8-4.7,18.6c-2,3.8-4.8,6.2-8.5,7.1
			c-3.7,0.9-8.7,1.4-15.1,1.4c-6.5,0-12.6,0-18.5,0l7.7-55h20.9c6.8,0,11.5,0.8,14.4,2.5c2.8,1.6,4.4,4.5,4.7,8.5
			C1546.7,361.5,1546.4,367.2,1545.5,374.5z M1870.8,284.4c-4.5-14.6-12.6-25.2-24.5-31.6c-11.9-6.5-27.4-9.7-46.6-9.7
			c-14.1,0-26.2,1.5-36.3,4.5c-10.1,3-18.7,8.1-25.7,15.2c-7,7.1-12.7,16.9-17.1,29.4c-2.9,8.2-5.3,17.7-7.4,28.6h-30.9l10.4-74
			h-51.5l-26.6,189h51.5l11.3-80.5h30.9c-1.1,12.5-1.2,23.3-0.3,32.5c1.3,12.9,4.7,23.1,10.1,30.8c5.5,7.7,13.1,13.1,23,16.3
			c9.9,3.2,22.1,4.8,36.7,4.8c15,0,27.9-1.5,38.8-4.5c10.9-3,19.9-8.1,27.1-15.2c7.2-7.1,13.1-16.9,17.8-29.4
			c4.7-12.5,8.3-28.3,10.8-47.2C1875.7,318.6,1875.2,299,1870.8,284.4z M1818.6,339.4c-2.2,16.4-4.8,29.1-7.7,37.9
			c-2.9,8.9-6.8,14.9-11.5,18.2c-4.8,3.3-11.2,4.9-19.4,4.9c-7.3,0-12.8-1.5-16.4-4.7c-3.7-3.1-5.7-8.8-6.2-17.1
			c-0.5-8.3,0.4-20.1,2.6-35.5c2.2-16.6,4.7-29.3,7.4-38.1c2.7-8.8,6.5-14.8,11.2-18.1c4.7-3.3,11.2-4.9,19.4-4.9
			c7.8,0,13.6,1.6,17.1,4.7c3.6,3.1,5.6,8.8,6,17C1821.6,312,1820.8,323.9,1818.6,339.4z"/>
	</g>
</g>
<path class="st0" d="M195.3,196.8c0,0,39.4,71.1,39.4,170.4l43.7,13.2l41.4-13.2c0-34.2-2.8-62.5-6.3-84.6h70.9
	c-9.8,33.3-16.4,67.6-19.8,103.1l-93.1,37.8l-93.1-37.8c-8-82.7-33.1-158.8-76.3-231.3l48-69.3h242.9l46.7,67.5H543L437.5,0H105.4
	L-0.3,152.7l15.9,24C64.8,251.3,90.9,330,95.3,417.3l1.4,27.1l174.7,70.9l174.7-70.9l1.4-27.1c4-79.6,26-151.9,67.1-220.5H195.3z"/>
</svg>
