<?xml version="1.0" encoding="utf-8"?>
<!-- Generator: Adobe Illustrator 24.0.1, SVG Export Plug-In . SVG Version: 6.00 Build 0)  -->
<svg version="1.1" id="Layer_2_1_" xmlns="http://www.w3.org/2000/svg" xmlns:xlink="http://www.w3.org/1999/xlink" x="0px" y="0px"
	 viewBox="0 0 543 515.3" style="enable-background:new 0 0 543 515.3;" xml:space="preserve">
<style type="text/css">
	.st0{fill:#FFFFFF;}
</style>
<path class="st0" d="M195.3,196.8c0,0,39.4,71.1,39.4,170.4l43.7,13.2l41.4-13.2c0-34.2-2.8-62.5-6.3-84.6h70.9
	c-9.8,33.3-16.4,67.6-19.8,103.1l-93.1,37.8l-93.1-37.8c-8-82.7-33.1-158.8-76.3-231.3l48-69.3H393l46.7,67.5H543L437.5,0H105.4
	L-0.3,152.7l15.9,24C64.8,251.3,90.9,330,95.3,417.3l1.4,27.1l174.7,70.9l174.7-70.9l1.4-27.1c4-79.6,26-151.9,67.1-220.5
	L195.3,196.8L195.3,196.8z"/>
</svg>
